<svg id="Window_2" data-name="Window 2" xmlns="http://www.w3.org/2000/svg" viewBox="0 0 256 256"><title>minimalnewtab-icon</title><rect x="11.61" y="63.19" width="232.57" height="147.43" style="fill:#495057"/><polygon points="34.44 64 38.63 55.03 108.72 54.87 112.89 64 34.44 64" style="fill:#495057"/><rect x="40.74" y="58.99" width="19.27" height="1.5" style="fill:#f1f3f5"/><rect x="62.14" y="58.99" width="27.02" height="1.5" style="fill:#f1f3f5"/><rect x="90.69" y="58.99" width="10.67" height="1.5" style="fill:#f1f3f5"/><path d="M111,160.46V84.75H120l10.51,40.79L141,84.75h9.06v75.71h-8.24V145.32q0-14.11,1-30.28,0.51-8.24.72-15.86l-10,38.63h-6.18l-10-38.63q0.21,7.62.72,15.86,1,16.17,1,30.28v15.14H111Z" style="fill:#f1f3f5"/><rect x="32" y="171" width="192" height="4" style="fill:#f1f3f5"/></svg>